<?xml version="1.0" standalone="no"?>
<!DOCTYPE svg PUBLIC "-//W3C//DTD SVG 20010904//EN"
 "http://www.w3.org/TR/2001/REC-SVG-20010904/DTD/svg10.dtd">
<svg version="1.0" xmlns="http://www.w3.org/2000/svg"
 width="779.000000pt" height="467.000000pt" viewBox="0 0 779.000000 467.000000"
 preserveAspectRatio="xMidYMid meet">

<g transform="translate(0.000000,467.000000) scale(0.100000,-0.100000)"
fill="#000000" stroke="none">
<path d="M0 2335 l0 -2335 3895 0 3895 0 0 2335 0 2335 -3895 0 -3895 0 0
-2335z m2441 2128 c-2 -216 -6 -243 -40 -283 -51 -61 -138 -60 -184 2 -25 34
-17 71 26 111 28 26 36 29 84 25 l53 -5 0 73 0 73 -37 -6 c-21 -3 -78 -14
-128 -24 -49 -10 -99 -19 -112 -19 -23 0 -23 0 -23 -151 0 -172 -9 -204 -68
-241 -47 -29 -121 -30 -160 -1 -15 11 -33 37 -41 57 -12 32 -12 41 4 76 24 53
69 80 132 80 27 0 54 -5 61 -12 12 -12 13 9 17 242 2 125 -4 115 78 128 39 7
131 23 202 35 72 13 132 23 134 21 2 -2 3 -83 2 -181z m2739 79 c0 -4 29 -39
64 -77 34 -39 66 -80 70 -92 15 -46 -33 -143 -71 -143 -9 0 -5 12 12 40 14 22
25 51 25 66 0 29 -49 84 -75 84 -14 0 -16 -15 -14 -125 l3 -126 -30 -30 c-39
-39 -81 -50 -122 -34 -103 44 -63 180 53 180 l43 0 6 59 c3 32 6 92 6 132 0
59 3 74 15 74 8 0 15 -4 15 -8z m-343 -118 c8 -21 -13 -42 -28 -27 -13 13 -5
43 11 43 6 0 13 -7 17 -16z m-2127 -64 c0 -5 -4 -10 -10 -10 -5 0 -10 5 -10
10 0 6 5 10 10 10 6 0 10 -4 10 -10z m3316 -73 c69 -41 138 -111 161 -165 26
-60 22 -149 -7 -202 -14 -25 -30 -43 -35 -40 -6 3 -9 36 -7 75 3 60 0 75 -20
105 -22 32 -118 100 -143 100 -7 0 -9 -67 -7 -202 3 -191 2 -205 -18 -236 -38
-61 -164 -94 -217 -57 -12 8 -27 13 -35 12 -7 -2 -10 -2 -6 0 4 2 -2 19 -13
36 -64 106 55 246 186 217 l35 -8 0 225 0 224 33 -25 c17 -13 59 -40 93 -59z
m-4471 -57 c8 -13 -4 -50 -16 -50 -13 0 -22 27 -15 45 6 17 22 20 31 5z m4004
-14 c9 -10 8 -16 -3 -26 -19 -15 -36 -5 -36 21 0 22 22 25 39 5z m-4299 -132
c0 -8 -7 -14 -15 -14 -15 0 -21 21 -9 33 10 9 24 -2 24 -19z m1437 4 c-3 -8
-6 -5 -6 6 -1 11 2 17 5 13 3 -3 4 -12 1 -19z m120 -36 c17 2 27 -2 26 -9 -3
-13 14 -12 43 4 17 10 24 8 39 -9 16 -19 18 -20 27 -5 12 22 30 22 26 0 -2
-13 5 -19 25 -21 22 -3 27 1 27 17 0 12 5 21 11 21 7 0 9 -10 7 -25 -3 -14 0
-26 6 -26 6 -1 20 -2 31 -3 11 0 25 -4 30 -7 22 -13 46 -18 40 -9 -9 15 28 -2
41 -18 9 -13 12 -12 17 2 8 21 29 11 25 -12 -2 -9 4 -17 12 -17 8 -1 14 -7 12
-15 -2 -10 3 -8 19 5 20 18 22 18 16 3 -4 -10 -2 -18 4 -18 16 0 40 -27 37
-41 -2 -7 5 -14 14 -17 13 -2 16 3 15 22 -1 14 3 25 8 24 6 0 9 -5 7 -11 -2
-5 3 -14 10 -18 10 -7 10 -9 -1 -9 -11 0 -11 -3 -1 -15 16 -20 41 -20 34 0 -5
12 -1 13 24 4 24 -8 37 -7 61 6 17 8 31 12 30 8 -3 -20 2 -24 16 -13 8 7 15
23 15 36 0 15 6 24 16 24 11 0 14 -6 9 -20 -4 -11 -2 -20 4 -20 6 0 11 6 11
13 0 8 3 7 10 -3 5 -9 25 -15 49 -15 42 -1 51 10 29 34 -11 11 -9 11 9 2 18
-9 28 -8 48 5 23 15 25 15 31 0 3 -9 12 -16 19 -16 7 0 12 -6 11 -12 -3 -27
20 -20 35 10 9 17 19 29 22 25 4 -3 1 -15 -5 -27 -10 -19 -10 -20 6 -7 14 12
16 12 11 -2 -4 -8 -1 -18 5 -22 13 -8 21 -3 24 17 2 19 16 38 26 38 5 0 15
-12 22 -27 8 -17 21 -28 34 -28 11 0 28 -6 37 -14 20 -16 42 -3 52 30 4 10 14
19 23 19 12 0 13 -3 4 -12 -19 -19 -14 -38 9 -38 15 0 19 5 15 15 -3 9 0 15 8
15 8 0 16 -5 18 -11 2 -6 15 -9 28 -7 25 4 25 4 -5 17 -27 12 -28 14 -10 21
11 4 22 3 23 -1 7 -18 23 -8 17 10 -3 11 0 23 7 27 6 4 14 2 16 -4 2 -7 8 -12
13 -12 6 0 7 4 4 10 -3 6 1 7 10 4 11 -5 16 -2 15 7 -5 35 0 42 30 36 16 -4
32 -2 35 2 2 5 22 11 42 15 21 3 47 8 58 10 11 2 23 4 28 5 4 0 7 8 7 16 0 8
7 15 16 15 8 0 12 -4 9 -10 -4 -6 5 -9 19 -8 15 1 26 8 26 15 0 17 18 16 36
-2 9 -8 19 -15 24 -15 5 0 7 7 4 15 -5 11 1 15 20 15 14 0 26 -6 27 -12 0 -9
2 -9 6 1 5 11 7 11 14 0 7 -11 9 -10 9 4 0 20 30 23 62 6 15 -8 19 -8 14 0 -9
14 23 14 44 1 12 -8 12 -10 1 -10 -8 0 -11 -3 -8 -6 4 -4 18 1 32 10 23 15 26
15 45 -4 23 -23 42 -27 34 -7 -3 8 4 13 17 14 14 1 19 -3 15 -12 -6 -17 11
-24 49 -20 18 2 34 -3 43 -13 13 -16 13 -16 8 0 -3 10 -1 20 4 23 6 4 10 2 10
-4 0 -6 6 -8 14 -5 7 3 16 -2 19 -10 7 -18 43 -13 39 5 -1 8 6 3 17 -11 12
-15 30 -24 48 -25 21 0 27 -5 25 -18 -2 -9 2 -17 8 -17 6 0 8 -5 4 -12 -4 -6
-3 -8 4 -4 6 3 15 -2 21 -11 9 -16 10 -16 11 5 0 21 1 22 16 7 9 -8 14 -22 11
-29 -3 -8 2 -24 12 -35 19 -21 37 -29 26 -11 -3 6 1 10 10 10 9 0 13 -4 10
-10 -3 -5 3 -10 14 -10 23 0 29 -16 9 -22 -9 -3 -8 -12 6 -32 9 -15 20 -25 23
-22 3 3 0 14 -8 23 -13 17 -13 17 7 0 11 -9 23 -15 26 -12 3 3 4 -9 3 -25 -1
-23 2 -30 13 -25 10 4 12 0 8 -11 -5 -12 -2 -15 9 -10 10 4 19 -3 27 -19 6
-14 17 -25 25 -25 7 0 13 -4 13 -10 0 -5 -5 -10 -11 -10 -5 0 -7 -5 -4 -11 4
-6 13 -8 20 -5 19 7 27 -5 14 -20 -9 -11 -7 -15 7 -21 25 -9 35 -24 28 -45 -3
-12 6 -28 27 -47 17 -16 29 -33 26 -38 -6 -9 7 -98 19 -127 6 -15 4 -17 -6
-11 -9 6 -11 4 -5 -5 11 -18 13 -150 3 -156 -5 -3 -3 -14 3 -25 8 -15 7 -26
-4 -42 -10 -15 -12 -29 -6 -45 11 -29 4 -42 -22 -42 -24 0 -24 -8 2 -28 13
-11 18 -23 14 -35 -11 -27 -28 -20 -21 8 9 37 -7 30 -20 -8 -8 -26 -7 -36 4
-47 12 -10 16 -10 24 1 7 11 8 9 5 -6 -2 -11 -9 -19 -16 -17 -7 1 -19 -2 -27
-9 -8 -6 -22 -8 -31 -5 -12 4 -9 0 6 -12 13 -11 21 -24 17 -31 -4 -6 -2 -11 4
-11 6 0 8 -5 5 -10 -4 -6 -11 -8 -16 -5 -5 4 -9 1 -9 -5 0 -6 -4 -8 -10 -5 -5
3 -10 1 -10 -4 0 -6 4 -11 8 -11 15 0 62 25 62 33 0 4 4 7 8 7 5 0 9 -14 9
-31 0 -27 -2 -29 -12 -15 -11 15 -14 15 -26 0 -10 -13 -10 -20 0 -36 10 -16
10 -23 -1 -35 -10 -13 -10 -17 0 -20 6 -3 10 -9 6 -14 -8 -13 20 -11 34 3 7 7
8 16 2 23 -7 8 -2 10 18 7 18 -2 33 2 41 12 23 27 30 18 28 -31 -2 -45 -4 -48
-29 -48 -27 1 -46 -29 -27 -41 16 -10 10 -44 -8 -44 -15 -1 -15 -3 5 -19 13
-12 20 -25 16 -35 -5 -12 0 -16 21 -16 20 0 26 -4 23 -17 -2 -10 -11 -17 -21
-17 -25 2 -21 -11 9 -24 14 -7 22 -17 19 -22 -9 -15 36 -49 58 -45 9 2 15 0
12 -6 -9 -13 7 -11 27 5 10 7 15 16 11 19 -3 4 -1 7 6 7 7 0 15 -9 18 -19 7
-27 31 -15 36 17 4 27 4 27 12 4 8 -23 16 -24 58 -7 14 6 17 2 17 -22 0 -26
-5 -31 -39 -41 -21 -7 -46 -12 -55 -12 -9 0 -25 -9 -37 -21 -15 -15 -24 -18
-32 -10 -25 25 -39 12 -32 -29 5 -32 3 -41 -9 -46 -18 -7 -22 -34 -5 -34 5 0
7 6 3 13 -5 8 -2 8 9 -2 18 -14 24 -36 7 -26 -5 3 -10 -1 -10 -10 0 -9 5 -13
10 -10 6 3 10 1 10 -4 0 -6 -5 -11 -11 -11 -8 0 -8 -5 1 -15 7 -8 21 -15 31
-15 11 0 19 -5 19 -11 0 -6 -9 -9 -20 -6 -13 3 -20 0 -20 -10 0 -10 -6 -12
-20 -8 -15 5 -18 3 -14 -9 3 -8 12 -12 19 -10 9 4 14 -1 14 -13 1 -42 5 -50
21 -46 20 5 36 -13 42 -50 6 -34 -10 -47 -29 -22 -12 17 -13 17 -13 2 0 -9 5
-17 10 -17 6 0 10 -9 10 -19 0 -19 14 -22 37 -8 6 4 14 3 18 -3 4 -6 11 -8 16
-4 6 3 21 3 33 0 18 -4 22 -11 19 -29 -5 -27 -38 -33 -60 -11 -8 7 -26 14 -41
14 -20 0 -23 -3 -12 -9 8 -6 18 -7 22 -5 12 8 9 -11 -4 -24 -6 -6 -8 -15 -3
-19 4 -5 10 -2 12 5 3 6 11 12 19 12 12 0 12 -4 4 -21 -9 -16 -18 -19 -36 -15
-20 5 -24 3 -24 -17 0 -17 6 -23 23 -24 12 0 16 1 10 4 -21 8 -15 22 7 16 11
-3 27 -15 35 -26 l15 -21 26 25 c26 23 26 23 15 2 -10 -20 -9 -23 9 -23 11 0
20 -4 20 -10 0 -5 13 -10 29 -10 17 0 33 -5 36 -10 5 -8 -121 -17 -157 -11 -5
0 -8 -4 -8 -10 0 -7 11 -9 28 -6 15 3 34 1 42 -4 11 -8 8 -9 -10 -4 -22 5 -23
4 -9 -7 19 -16 40 -74 31 -83 -4 -4 0 -5 8 -3 9 2 14 -3 12 -11 -3 -12 0 -12
12 -2 11 10 13 18 6 31 -7 13 -5 22 7 31 15 12 16 12 10 -3 -3 -10 -2 -20 4
-24 6 -4 6 -10 -1 -19 -7 -8 -9 -23 -5 -35 6 -19 -3 -25 -28 -21 -5 1 -6 -3
-3 -8 4 -5 -1 -17 -10 -25 -12 -12 -12 -16 -2 -17 10 0 10 -2 1 -6 -8 -3 -13
-24 -13 -55 0 -35 -4 -48 -12 -45 -7 2 -14 17 -14 33 -2 51 -4 54 -29 52 -23
-2 -30 -14 -26 -45 1 -7 -3 -13 -9 -13 -5 0 -9 3 -8 8 3 15 -15 42 -27 42 -20
0 -29 -19 -16 -33 12 -15 9 -43 -7 -59 -16 -16 -28 -2 -13 15 8 11 8 22 0 46
l-12 33 -15 -31 c-12 -25 -12 -34 -2 -46 17 -20 5 -32 -15 -15 -10 8 -15 9
-15 1 0 -6 5 -11 11 -11 7 0 9 -10 7 -25 -4 -18 -1 -25 11 -25 13 0 13 -2 3
-9 -12 -7 -12 -12 0 -30 10 -17 20 -20 43 -16 17 2 24 2 18 -1 -7 -3 -13 -12
-13 -19 0 -15 33 -37 44 -30 3 3 4 2 2 -1 -3 -3 6 -18 20 -32 13 -15 24 -31
24 -37 0 -5 4 -4 9 4 7 10 13 11 30 2 11 -7 21 -16 21 -21 0 -6 10 -10 23 -10
14 0 30 -12 45 -35 l22 -35 -24 0 c-13 0 -35 9 -50 21 -14 11 -26 18 -26 14 0
-3 -13 1 -29 9 -16 9 -31 12 -35 9 -3 -4 -6 0 -6 9 0 8 -6 15 -12 16 -7 0 -23
4 -36 7 -18 6 -21 4 -16 -9 3 -9 2 -16 -3 -16 -18 0 -23 13 -11 27 9 11 9 16
-2 23 -7 5 -15 16 -16 25 -4 27 -15 31 -28 12 -15 -20 -33 -22 -39 -4 -2 6 -4
-2 -3 -19 1 -21 6 -30 19 -31 9 -1 15 2 12 6 -2 5 2 14 10 21 10 9 15 9 15 1
0 -6 -5 -11 -11 -11 -8 0 -8 -4 -1 -12 5 -8 6 -22 2 -34 -10 -25 -30 -41 -30
-24 0 6 -4 8 -10 5 -15 -10 -12 -25 8 -32 24 -9 30 -20 25 -48 -5 -24 -49 -41
-68 -25 -5 4 -21 11 -35 14 -17 5 -21 4 -11 -2 7 -5 10 -15 7 -21 -10 -16 -35
10 -29 29 3 8 -6 2 -20 -15 -25 -30 -25 -30 -4 -38 15 -6 17 -11 9 -19 -8 -8
-15 -8 -25 0 -11 9 -16 7 -25 -13 -10 -21 -9 -25 5 -25 13 0 12 -4 -7 -22 -14
-13 -28 -23 -32 -23 -10 0 -11 -12 -4 -28 5 -9 7 -9 12 1 8 17 24 15 24 -3 0
-18 -1 -18 43 0 31 13 36 13 41 0 7 -19 21 -19 40 1 15 14 16 12 16 -18 0 -28
4 -33 26 -34 23 -2 24 -1 7 11 -17 13 -17 15 -1 31 23 23 41 9 33 -28 -7 -31
-7 -31 29 -24 28 5 38 3 42 -9 5 -12 14 -14 35 -10 35 8 38 -7 7 -29 -21 -15
-14 -22 14 -17 5 0 7 -2 7 -7 -3 -19 2 -29 16 -29 8 0 12 4 10 8 -3 4 2 10 11
13 18 7 46 -23 36 -39 -3 -5 2 -4 11 4 9 7 17 9 17 5 0 -5 9 -15 21 -22 17
-11 20 -11 13 0 -6 9 -3 9 10 -1 14 -12 19 -12 26 -2 13 22 30 2 30 -34 0 -34
10 -38 60 -23 8 3 12 3 8 1 -4 -3 -2 -11 6 -18 7 -8 11 -25 9 -39 -6 -29 -1
-31 26 -14 18 11 18 13 3 24 -15 12 -16 14 -1 29 14 14 17 14 34 -5 10 -11 13
-20 7 -20 -7 0 -12 -11 -12 -25 0 -18 5 -25 20 -25 11 0 19 3 17 8 -2 7 6 12
24 12 5 0 8 -3 5 -8 -2 -4 2 -16 10 -26 13 -18 15 -18 32 -3 23 21 32 13 32
-30 0 -32 1 -33 40 -33 22 0 40 -4 40 -10 0 -5 5 -10 11 -10 5 0 8 4 5 9 -10
15 38 0 51 -17 11 -14 15 -14 31 1 14 13 21 14 30 5 7 -7 12 -18 12 -25 0 -7
9 -13 19 -13 14 0 18 5 14 20 -4 14 0 20 12 20 10 0 15 -5 12 -13 -20 -49 -21
-47 26 -47 35 0 48 -5 61 -23 10 -14 14 -16 10 -4 -8 22 10 22 32 0 17 -17 16
-18 -22 -25 -21 -3 -48 -5 -59 -2 -11 2 -49 6 -85 9 -84 6 -182 14 -245 19
-27 3 -84 7 -125 11 -41 3 -111 10 -155 15 -44 5 -165 14 -269 20 -129 7 -197
15 -215 25 -67 37 -97 45 -188 52 l-98 8 3 70 c5 95 -10 151 -69 268 -55 110
-57 94 14 177 112 130 228 342 285 520 58 184 67 245 67 480 0 240 -9 300 -72
495 -80 248 -247 494 -458 674 -49 42 -50 43 -10 20 22 -12 54 -30 70 -40 94
-55 241 -81 279 -50 10 8 28 35 41 60 80 159 73 374 -17 544 -36 66 -125 167
-198 223 -27 21 -50 46 -50 56 0 26 -58 107 -88 122 -48 24 -98 26 -136 6 -33
-16 -39 -17 -78 -3 -69 24 -240 29 -338 9 -176 -36 -348 -149 -412 -270 -26
-51 -19 -63 97 -174 49 -47 81 -82 70 -78 -37 15 -249 56 -322 63 -77 6 -80 9
-67 61 4 12 14 22 24 22 34 0 60 47 60 109 0 66 -17 97 -66 117 -49 21 -394
20 -434 -1 -46 -24 -60 -52 -60 -121 0 -59 2 -63 39 -97 22 -19 42 -44 45 -55
8 -23 12 -21 -139 -47 -110 -19 -213 -41 -239 -51 -11 -4 14 25 56 64 41 40
88 90 103 113 l29 40 -20 37 c-10 20 -45 64 -76 97 -68 73 -203 147 -313 170
-91 19 -227 19 -320 0 -53 -11 -80 -13 -94 -6 -28 15 -133 17 -159 2 -35 -19
-83 -90 -76 -115 4 -16 -3 -26 -27 -40 -55 -32 -182 -161 -218 -220 -18 -30
-46 -93 -62 -138 -48 -138 -36 -315 29 -448 27 -54 28 -55 75 -58 55 -4 134
17 227 60 95 44 130 59 130 55 0 -2 -30 -28 -66 -57 -73 -59 -208 -212 -271
-305 -117 -174 -208 -415 -233 -615 -41 -340 3 -636 138 -905 53 -107 173
-290 235 -360 l44 -49 -38 -59 c-63 -97 -82 -158 -87 -274 l-4 -103 -41 0
c-44 0 -170 -17 -199 -26 -10 -3 -17 -10 -15 -16 4 -19 -54 -28 -268 -43 -115
-8 -226 -17 -245 -20 -19 -3 -64 -7 -100 -10 -129 -8 -316 -26 -370 -35 -46
-8 -190 -14 -252 -11 -11 1 -18 9 -18 20 0 27 21 37 35 18 16 -22 22 -21 28 3
6 25 35 26 53 3 13 -17 13 -17 14 0 0 15 11 22 33 18 4 0 7 3 7 8 0 5 9 13 20
16 11 4 18 11 15 16 -10 15 26 23 36 8 8 -12 11 -11 20 4 7 12 20 17 37 16 15
-2 37 1 50 5 14 5 29 3 38 -5 20 -16 36 5 31 38 -5 28 18 51 27 28 8 -22 34
-18 41 6 4 11 12 18 18 16 40 -15 56 -17 62 -7 3 5 22 10 41 10 19 0 33 4 30
9 -3 4 5 13 17 18 16 8 26 7 35 -3 10 -11 10 -14 1 -14 -7 0 -10 -3 -6 -6 3
-3 15 1 27 9 20 14 20 16 4 31 -24 25 -2 46 27 28 18 -12 23 -11 36 7 9 13 25
21 44 21 29 0 39 13 18 25 -7 5 -5 13 6 25 11 12 13 20 5 25 -14 9 -3 25 14
19 8 -3 13 -18 12 -36 0 -17 5 -33 12 -35 7 -3 12 -1 11 4 -3 20 2 34 11 28 6
-3 10 -2 10 4 0 5 -5 13 -10 16 -20 12 2 26 30 20 22 -5 31 -2 39 14 14 25 14
34 1 26 -16 -10 -12 31 4 44 11 10 16 9 24 -5 7 -13 13 -14 31 -4 13 6 24 10
25 8 2 -2 8 -12 14 -23 8 -15 11 -16 12 -5 0 26 21 40 42 29 24 -13 23 -1 -3
22 -16 14 -26 16 -39 9 -19 -10 -50 -4 -50 10 0 15 24 24 28 12 5 -17 29 -15
36 3 3 8 10 15 17 15 6 0 8 -7 5 -16 -3 -8 -2 -12 4 -9 6 3 10 -1 10 -9 0 -22
19 -20 27 2 15 41 26 45 43 12 l17 -32 13 31 c13 33 30 41 30 15 0 -8 5 -12
10 -9 6 4 8 11 5 16 -4 5 -1 9 5 9 7 0 9 7 6 16 -4 9 -1 23 6 32 11 13 10 14
-8 4 -18 -10 -24 -7 -43 19 -18 24 -20 33 -11 44 12 15 6 35 -11 35 -5 0 -9
-7 -9 -15 0 -19 -31 -56 -42 -49 -4 3 -8 17 -8 32 0 15 -5 34 -10 42 -9 13
-12 13 -23 0 -13 -17 -112 -26 -102 -10 4 6 12 10 20 10 16 0 11 43 -5 48 -6
2 -7 8 -4 13 3 6 16 3 31 -7 25 -16 26 -16 20 5 -3 11 -1 19 4 15 5 -3 9 5 8
18 0 13 -3 17 -6 11 -7 -19 -40 -16 -47 3 -4 9 -2 22 4 29 5 6 7 15 3 18 -3 4
-1 7 5 7 6 0 18 -10 27 -22 15 -22 15 -22 10 19 -3 23 -9 52 -14 65 -10 23
-10 23 -10 -4 -1 -26 -21 -42 -21 -16 0 6 -13 -1 -30 -17 -30 -28 -39 -55 -20
-55 6 0 10 -7 10 -15 0 -18 -14 -19 -41 -5 -11 6 -19 7 -19 1 0 -8 -81 -41
-102 -41 -30 0 18 57 72 85 16 8 30 25 32 37 2 15 13 24 36 30 17 5 32 15 32
23 0 8 8 18 17 24 13 7 18 23 19 60 1 28 -2 48 -7 45 -5 -3 -5 6 0 19 12 31
-8 63 -33 54 -10 -4 -16 -1 -16 8 0 24 -19 17 -26 -10 -3 -14 -10 -22 -15 -20
-4 3 -4 17 2 32 5 14 7 29 3 32 -4 3 -9 0 -12 -8 -4 -11 -6 -11 -14 0 -7 11
-8 9 -4 -5 10 -29 -22 -48 -49 -30 -12 8 -25 11 -28 8 -13 -13 -37 19 -37 48
0 17 -4 27 -10 23 -6 -4 -8 -10 -5 -14 2 -5 -7 -6 -20 -3 -20 3 -25 11 -25 32
0 30 18 43 40 30 20 -13 40 11 23 28 -17 17 -8 33 14 25 11 -4 14 -3 9 5 -4 8
-2 10 7 6 8 -3 18 0 22 5 3 6 11 9 16 6 5 -4 6 7 3 25 -6 29 7 42 21 20 10
-17 25 -11 25 9 0 14 -9 20 -35 23 -19 2 -35 1 -35 -3 0 -4 -24 -5 -52 -3 -59
6 -215 -29 -234 -52 -14 -18 -29 -18 -44 0 -6 8 -21 16 -33 18 -18 3 -14 7 22
32 29 20 45 26 52 19 21 -21 277 9 286 33 4 10 10 10 29 -3 22 -14 28 -11 25
10 0 4 6 7 15 7 8 0 12 4 9 10 -3 5 0 7 8 4 8 -3 18 0 22 7 7 10 10 23 14 68
1 8 9 12 24 9 16 -3 24 0 24 9 0 10 -8 13 -24 8 -27 -6 -31 9 -5 24 16 10 15
10 -3 11 -15 0 -17 2 -7 9 12 7 12 12 1 29 -11 17 -11 24 -1 34 9 9 12 8 12
-5 0 -9 5 -17 11 -17 5 0 7 5 4 10 -3 6 1 10 10 10 9 0 14 -4 10 -9 -3 -5 0
-13 6 -17 8 -4 9 -3 5 5 -4 6 0 14 8 17 9 3 16 10 16 15 0 4 -7 5 -17 2 -11
-4 -14 -3 -9 6 4 6 2 18 -4 26 -10 12 -9 15 4 15 10 0 14 5 11 10 -4 6 -11 7
-17 4 -7 -4 -8 -2 -4 4 4 7 15 12 25 12 26 0 25 47 -1 53 -12 4 -17 10 -13 17
4 6 13 9 19 7 13 -5 15 1 19 53 1 17 9 35 17 40 16 10 11 12 -30 14 -19 1 -25
7 -26 24 -1 12 3 22 7 22 5 0 9 -7 9 -16 0 -26 25 -9 28 19 3 28 -6 35 -24 17
-7 -7 -15 1 -24 25 -15 38 -33 41 -38 7 -4 -25 -17 -29 -26 -7 -3 8 -13 15
-23 15 -10 0 -26 7 -36 14 -22 17 -30 66 -11 66 7 0 15 6 17 13 4 9 8 8 16 -3
9 -13 15 -10 36 15 l24 30 1 -31 c0 -31 21 -60 33 -47 4 3 14 0 23 -7 13 -12
17 -11 24 0 5 8 6 18 4 22 -3 4 3 5 12 1 15 -6 15 -4 -1 21 -25 38 -7 54 31
29 16 -10 25 -13 21 -6 -4 6 -2 23 4 37 9 19 9 29 1 39 -9 11 -7 18 9 33 16
14 22 15 28 5 5 -8 11 -9 15 -3 3 5 -8 15 -24 22 -17 7 -30 17 -30 22 0 12 42
27 59 20 10 -4 11 1 6 18 -5 15 -2 26 6 32 11 7 11 11 2 15 -7 2 -13 10 -13
16 0 8 4 7 12 -1 17 -17 25 -15 31 8 3 12 1 20 -6 19 -24 -3 -37 1 -37 11 0 5
5 9 12 7 7 -1 13 5 13 13 0 8 7 14 14 12 25 -5 1 14 -46 38 -26 13 -52 29 -56
37 -4 7 -14 13 -21 13 -7 0 -21 9 -31 20 -12 14 -22 17 -28 11 -7 -7 -18 -1
-34 17 -27 32 -28 36 -8 52 16 13 36 1 90 -57 11 -12 31 -23 45 -25 14 -2 29
-13 35 -25 12 -27 21 -29 42 -7 13 13 17 13 24 2 7 -11 9 -11 9 0 0 8 -9 16
-19 19 -21 5 -34 50 -19 60 11 6 29 -17 22 -28 -2 -4 0 -10 6 -14 5 -3 10 -1
10 5 0 6 5 8 10 5 15 -9 12 11 -3 24 -8 6 -14 25 -15 42 -1 35 -12 54 -12 21
0 -26 -15 -29 -24 -5 -4 10 -1 22 7 28 13 9 12 14 -4 34 -10 13 -19 37 -18 55
0 17 -3 56 -7 86 -4 30 -7 74 -7 98 0 37 -1 40 -13 25 -10 -14 -15 -16 -25 -5
-11 10 -11 12 0 12 7 0 10 7 7 18 -4 11 2 28 14 42 25 29 17 40 -11 14 -15
-13 -20 -14 -15 -4 3 8 9 23 12 33 7 20 20 22 27 5 3 -7 6 1 6 19 1 24 -3 31
-13 27 -16 -6 -30 11 -21 26 5 8 11 8 20 0 16 -13 40 13 32 35 -4 8 0 20 7 28
7 7 13 23 12 36 -1 13 4 26 11 28 7 3 10 -3 6 -15 -2 -11 0 -23 6 -26 7 -4 8
-1 5 8 -3 9 -1 16 5 16 6 0 8 7 5 15 -4 8 -1 15 6 15 7 0 9 8 5 20 -4 12 -2
20 5 20 6 0 8 5 4 11 -5 9 1 10 20 5 24 -6 26 -5 17 12 -8 15 -6 24 10 38 12
11 24 18 28 17 3 -2 6 0 6 5 1 17 31 52 45 52 12 0 12 2 2 9 -11 7 -10 10 3
15 9 3 21 3 27 0 5 -3 8 0 6 8 -1 7 7 23 20 36 12 12 22 19 22 15 0 -5 4 -3 8
2 12 17 47 41 38 28 -4 -7 -2 -13 4 -13 6 0 13 13 16 30 4 16 10 27 15 24 5
-3 9 4 9 16 0 12 5 18 10 15 6 -3 10 -1 10 5 0 6 5 8 10 5 6 -3 10 2 10 11 0
10 3 15 6 11 4 -3 26 4 49 18 33 18 46 21 55 12 10 -9 11 -9 6 1 -4 6 -2 12 3
12 6 0 11 -5 11 -11 0 -6 7 -3 16 6 12 11 20 13 29 5 16 -13 48 -2 41 15 -3 8
5 11 22 9 15 -1 31 1 37 6 5 4 26 9 45 9 31 1 66 4 108 9 8 1 10 11 7 30 -5
24 -4 24 9 -6 13 -27 20 -32 43 -30z m20 36 c-3 -8 -6 -5 -6 6 -1 11 2 17 5
13 3 -3 4 -12 1 -19z m2603 -35 c-13 -15 -20 -20 -17 -11 3 10 2 20 -3 23 -6
4 -6 14 1 27 10 18 12 19 26 5 14 -14 13 -18 -7 -44z m-2130 37 c0 -5 -5 -10
-11 -10 -5 0 -7 5 -4 10 3 6 8 10 11 10 2 0 4 -4 4 -10z m1327 -12 c-3 -8 -6
-5 -6 6 -1 11 2 17 5 13 3 -3 4 -12 1 -19z m518 -46 c-3 -3 -11 0 -18 7 -9 10
-8 11 6 5 10 -3 15 -9 12 -12z m-2675 4 c0 -3 -4 -8 -10 -11 -5 -3 -10 -1 -10
4 0 6 5 11 10 11 6 0 10 -2 10 -4z m682 -18 c-7 -7 -12 -8 -12 -2 0 6 3 14 7
17 3 4 9 5 12 2 2 -3 -1 -11 -7 -17z m148 12 c0 -5 -4 -10 -10 -10 -5 0 -10 5
-10 10 0 6 5 10 10 10 6 0 10 -4 10 -10z m-780 -10 c0 -5 -4 -10 -10 -10 -5 0
-10 5 -10 10 0 6 5 10 10 10 6 0 10 -4 10 -10z m1258 -53 c2 -12 -3 -17 -17
-17 -12 0 -21 6 -21 13 0 31 32 34 38 4z m-478 -7 c0 -5 -9 -10 -20 -10 -11 0
-20 5 -20 10 0 6 9 10 20 10 11 0 20 -4 20 -10z m140 0 c0 -5 -2 -10 -4 -10
-3 0 -8 5 -11 10 -3 6 -1 10 4 10 6 0 11 -4 11 -10z m150 6 c0 -11 -19 -15
-25 -6 -3 5 1 10 9 10 9 0 16 -2 16 -4z m650 -6 c0 -5 -7 -10 -15 -10 -8 0
-15 5 -15 10 0 6 7 10 15 10 8 0 15 -4 15 -10z m-2747 -90 c149 -99 197 -165
197 -267 0 -63 -24 -126 -58 -156 -28 -25 -34 -9 -17 47 8 25 12 52 10 59 -2
6 -6 24 -9 39 -3 14 -18 40 -32 57 -25 30 -123 101 -139 101 -4 0 -6 -95 -3
-210 6 -204 5 -211 -16 -242 -12 -18 -37 -43 -56 -56 -30 -20 -44 -23 -99 -20
-60 4 -66 7 -103 47 -38 40 -40 46 -36 91 6 61 36 102 94 130 34 17 57 21 93
18 l49 -5 6 51 c3 28 6 126 6 219 0 92 2 167 4 167 2 0 52 -32 109 -70z m912
46 c-16 -13 -32 -22 -35 -19 -6 5 41 42 55 43 6 0 -3 -11 -20 -24z m2723 -12
c41 -26 23 -32 -32 -10 -30 11 -52 24 -49 29 6 9 52 -1 81 -19z m-2623 7 c-15
-14 -85 -31 -85 -21 0 5 8 14 18 19 22 13 80 15 67 2z m-1425 -22 c0 -5 -4 -9
-10 -9 -5 0 -10 7 -10 16 0 8 5 12 10 9 6 -3 10 -10 10 -16z m1912 -13 c96
-28 177 -77 235 -141 35 -39 42 -51 29 -53 -10 -2 -35 17 -63 48 -25 28 -51
49 -57 47 -6 -2 -24 2 -40 10 -57 29 -414 11 -508 -26 -17 -6 -28 -7 -28 -1 0
5 -7 7 -15 4 -8 -3 -13 -11 -12 -17 2 -13 -70 -40 -84 -31 -13 7 -11 34 2 34
6 0 29 13 52 29 47 31 197 101 219 101 8 0 18 4 24 9 27 26 129 20 246 -13z
m458 14 c0 -11 -4 -20 -9 -20 -14 0 -23 18 -16 30 10 17 25 11 25 -10z m59 -6
c-14 -18 -24 -11 -15 11 3 9 11 13 16 10 8 -5 7 -11 -1 -21z m149 2 c3 -12 -1
-17 -10 -14 -7 3 -15 13 -16 22 -3 12 1 17 10 14 7 -3 15 -13 16 -22z m372
-11 c0 -3 -9 -1 -20 5 -11 6 -18 15 -15 21 6 9 35 -12 35 -26z m-2290 15 c0
-5 -4 -10 -10 -10 -5 0 -10 5 -10 10 0 6 5 10 10 10 6 0 10 -4 10 -10z m485 0
c3 -5 -1 -10 -10 -10 -9 0 -13 5 -10 10 3 6 8 10 10 10 2 0 7 -4 10 -10z
m2566 -21 c41 -17 85 -34 99 -38 56 -18 111 -53 120 -76 5 -14 14 -25 19 -25
13 0 42 -48 33 -54 -4 -2 -28 9 -52 26 -117 79 -224 102 -441 95 -143 -4 -163
-7 -215 -31 l-58 -27 23 25 c35 37 171 104 243 120 102 22 148 19 229 -15z
m634 12 c-3 -6 -11 -8 -17 -5 -6 4 -5 9 3 15 16 10 23 4 14 -10z m1003 -9 c2
-7 -3 -12 -12 -12 -9 0 -16 7 -16 16 0 17 22 14 28 -4z m-4398 -56 c-13 -13
-35 7 -25 24 5 8 11 8 21 -1 10 -8 12 -15 4 -23z m130 14 c0 -5 -8 -10 -17
-10 -15 0 -16 2 -3 10 19 12 20 12 20 0z m3260 -20 c0 -5 -4 -10 -10 -10 -5 0
-10 5 -10 10 0 6 5 10 10 10 6 0 10 -4 10 -10z m-1452 -52 c20 -17 14 -28 -10
-19 -12 4 -40 4 -62 0 -23 -4 -44 -5 -47 -3 -4 2 -54 -1 -111 -7 -88 -8 -112
-8 -149 5 -40 14 -45 14 -56 -1 -7 -9 -13 -12 -13 -6 0 26 38 42 110 46 111 6
323 -4 338 -15z m2642 12 c0 -5 -7 -10 -16 -10 -8 0 -12 5 -9 10 3 6 10 10 16
10 5 0 9 -4 9 -10z m-3593 -36 c65 -38 57 -61 -31 -91 -103 -34 -153 -29 -208
24 -32 31 -27 49 21 69 91 39 150 38 218 -2z m1648 18 c45 -15 50 -20 50 -47
0 -27 -5 -32 -55 -48 -30 -10 -59 -23 -64 -28 -6 -5 -19 -9 -31 -9 -37 0 -145
41 -145 55 0 27 13 47 49 70 43 30 119 32 196 7z m-3545 -108 c0 -8 -4 -12
-10 -9 -5 3 -10 10 -10 16 0 5 5 9 10 9 6 0 10 -7 10 -16z m5188 -7 c2 -12 -3
-17 -17 -17 -12 0 -21 6 -21 13 0 31 32 34 38 4z m-4491 -26 c2 -10 16 -24 29
-30 22 -10 34 -41 16 -41 -14 0 -90 39 -97 50 -9 14 13 40 32 40 8 0 17 -8 20
-19z m4351 -9 c2 -7 -6 -12 -17 -12 -21 0 -27 11 -14 24 9 9 26 2 31 -12z
m-538 -2 c0 -5 -2 -10 -4 -10 -3 0 -8 5 -11 10 -3 6 -1 10 4 10 6 0 11 -4 11
-10z m478 -44 c5 -24 -10 -38 -31 -30 -20 7 -22 25 -5 42 16 16 32 10 36 -12z
m-313 4 c10 -16 -15 -41 -62 -62 -26 -11 -43 -26 -44 -36 0 -9 -3 -12 -5 -5
-3 7 -12 9 -20 6 -8 -3 -14 0 -14 6 0 6 5 11 10 11 6 0 10 7 10 15 0 9 10 19
23 24 12 5 31 18 41 30 20 22 51 28 61 11z m-175 -4 c0 -3 -4 -8 -10 -11 -5
-3 -10 -1 -10 4 0 6 5 11 10 11 6 0 10 -2 10 -4z m-4730 -78 c0 -4 9 -8 19 -8
11 0 23 -4 26 -10 3 -5 -3 -10 -14 -10 -11 0 -28 -11 -38 -24 l-18 -23 -25 26
-25 26 25 31 c22 28 26 30 38 16 6 -9 12 -19 12 -24z m5016 -9 c3 -6 0 -18 -9
-26 -12 -12 -19 -13 -36 -3 -18 9 -20 14 -10 26 14 17 45 19 55 3z m-4129 -71
c48 -33 44 -66 -5 -45 -39 16 -56 33 -49 51 8 21 15 20 54 -6z m3923 -10 c0
-13 -20 -9 -36 6 -21 21 -17 26 11 13 14 -7 25 -15 25 -19z m70 2 c0 -5 -4
-10 -10 -10 -5 0 -10 5 -10 10 0 6 5 10 10 10 6 0 10 -4 10 -10z m-1735 -33
c368 -88 530 -155 738 -305 85 -61 102 -78 90 -85 -5 -3 -51 24 -103 59 -132
90 -270 159 -412 205 -199 64 -295 80 -528 86 -337 9 -571 -33 -821 -147 -113
-51 -161 -81 -284 -173 -193 -147 -185 -141 -185 -129 0 14 137 141 216 200
180 135 480 254 749 296 116 19 452 15 540 -7z m1805 13 c0 -5 -2 -10 -4 -10
-3 0 -8 5 -11 10 -3 6 -1 10 4 10 6 0 11 -4 11 -10z m683 -52 c3 -9 19 -19 36
-23 38 -8 40 -22 6 -31 -14 -3 -34 -18 -46 -32 l-20 -26 -6 22 c-3 13 -20 30
-37 39 l-31 16 33 14 c24 10 34 21 39 45 7 33 10 30 26 -24z m-453 -42 c0 -52
32 -81 100 -90 28 -4 50 -11 50 -15 0 -5 -23 -12 -51 -16 -42 -6 -52 -11 -60
-33 -6 -14 -18 -32 -29 -39 -10 -7 -20 -28 -22 -46 -4 -40 -22 -42 -26 -2 -5
40 -18 54 -47 50 -16 -1 -25 3 -25 11 0 8 5 14 12 14 6 0 1 11 -12 25 -13 14
-35 25 -48 25 -24 0 -23 14 1 15 7 1 35 12 64 26 l52 24 7 64 c6 58 8 63 20
46 8 -10 14 -37 14 -59z m-4490 38 c0 -9 -5 -14 -12 -12 -18 6 -21 28 -4 28 9
0 16 -7 16 -16z m4120 5 c0 -11 -27 -12 -34 -1 -2 4 4 9 15 9 10 1 19 -2 19
-8z m70 1 c0 -5 -4 -10 -10 -10 -5 0 -10 5 -10 10 0 6 5 10 10 10 6 0 10 -4
10 -10z m-303 -32 c-3 -8 -6 -5 -6 6 -1 11 2 17 5 13 3 -3 4 -12 1 -19z m-2
-178 c-18 -72 -30 -98 -41 -87 -4 4 3 39 14 79 12 40 25 96 29 123 l8 50 3
-49 c2 -27 -4 -79 -13 -116z m-3402 6 c22 -61 29 -96 18 -96 -17 0 -51 129
-50 189 l1 56 8 -54 c5 -29 15 -72 23 -95z m3637 120 c-6 -8 -18 -12 -26 -9
-23 9 -16 23 12 23 22 0 24 -2 14 -14z m-3829 -79 c-15 -15 -21 -5 -14 22 5
21 7 21 16 6 6 -11 5 -21 -2 -28z m3829 8 c-15 -17 -40 -20 -40 -4 0 6 7 9 15
6 8 -4 17 -2 20 3 4 6 9 10 12 10 3 0 0 -7 -7 -15z m630 -35 c13 -9 12 -12 -4
-25 -20 -15 -60 -21 -53 -7 2 4 7 15 10 25 7 19 24 22 47 7z m-5202 -33 c4
-21 -25 -34 -40 -19 -8 8 -8 16 2 27 16 19 34 15 38 -8z m762 14 c0 -5 -9 -12
-19 -16 -11 -3 -22 -14 -24 -23 -4 -16 -5 -16 -6 0 0 9 9 24 21 32 26 19 28
19 28 7z m3801 -24 c-10 -9 -11 -8 -5 6 3 10 9 15 12 12 3 -3 0 -11 -7 -18z
m-3891 9 c0 -3 -4 -8 -10 -11 -5 -3 -10 -1 -10 4 0 6 5 11 10 11 6 0 10 -2 10
-4z m-230 -20 c0 -3 -4 -8 -10 -11 -5 -3 -10 -1 -10 4 0 6 5 11 10 11 6 0 10
-2 10 -4z m4750 -47 c0 -5 -4 -9 -10 -9 -5 0 -10 7 -10 16 0 8 5 12 10 9 6 -3
10 -10 10 -16z m-4469 -32 c-8 -8 -11 -7 -11 4 0 20 13 34 18 19 3 -7 -1 -17
-7 -23z m3849 29 c0 -2 -7 -9 -15 -16 -13 -11 -14 -10 -9 4 5 14 24 23 24 12z
m-4013 -130 c-6 -19 -29 -12 -51 17 -18 24 -19 29 -6 37 11 7 21 3 38 -16 13
-14 21 -31 19 -38z m113 60 c0 -3 -4 -8 -10 -11 -5 -3 -10 -1 -10 4 0 6 5 11
10 11 6 0 10 -2 10 -4z m3894 -11 c-6 -16 -24 -21 -24 -7 0 11 11 22 21 22 5
0 6 -7 3 -15z m-1924 -50 c0 -30 -2 -55 -4 -55 -25 0 -36 17 -36 54 0 45 5 56
27 56 9 0 13 -16 13 -55z m1169 -8 c13 -20 11 -20 -15 3 -16 14 -33 28 -39 33
-5 5 1 3 16 -3 14 -6 31 -21 38 -33z m900 21 c-1 -28 -67 -87 -106 -94 -15 -3
-35 -12 -44 -20 -18 -16 -49 -9 -49 11 0 7 17 20 38 28 20 8 48 27 61 41 14
14 33 26 43 26 10 0 21 7 24 15 9 24 34 18 33 -7z m-4371 -60 c3 -13 -3 -18
-22 -18 -27 0 -41 14 -31 31 10 16 49 6 53 -13z m4162 -22 c0 -3 -4 -8 -10
-11 -5 -3 -10 -1 -10 4 0 6 5 11 10 11 6 0 10 -2 10 -4z m-2466 -42 c8 -22 7
-74 -1 -74 -25 1 -51 58 -38 80 9 15 32 12 39 -6z m1216 -18 c0 -20 -8 -42
-17 -52 -17 -17 -18 -16 -21 26 -2 28 1 46 10 51 23 15 28 10 28 -25z m1518
-8 c18 -18 15 -28 -8 -28 -13 0 -20 7 -20 20 0 23 10 26 28 8z m-4143 -8 c3
-5 -1 -10 -9 -10 -8 0 -18 5 -21 10 -3 6 1 10 9 10 8 0 18 -4 21 -10z m3602
-134 c126 -187 197 -377 208 -552 l5 -79 -16 80 c-36 190 -150 467 -242 588
-28 37 -56 77 -62 90 -18 36 56 -52 107 -127z m493 137 c0 -5 -7 -17 -15 -27
-10 -14 -12 -23 -4 -32 7 -8 7 -14 -1 -19 -5 -3 -10 0 -10 8 0 24 -29 28 -40
7 -12 -22 -35 -26 -45 -9 -9 14 21 46 51 53 13 4 24 11 24 16 0 6 9 10 20 10
11 0 20 -3 20 -7z m-3977 -55 c2 -7 0 -21 -4 -30 -10 -18 -2 -48 12 -48 5 0 9
-4 9 -10 0 -5 -9 -10 -21 -10 -14 0 -19 5 -17 17 3 18 -31 60 -44 56 -5 -2 -8
2 -8 8 0 6 7 9 15 5 8 -3 21 1 27 9 16 18 25 19 31 3z m-283 -18 c0 -23 -25
-27 -33 -6 -7 16 1 26 20 26 7 0 13 -9 13 -20z m4378 3 c-4 -22 -22 -20 -26 1
-2 10 3 16 13 16 10 0 15 -7 13 -17z m-76 -15 c-7 -7 -12 -8 -12 -2 0 14 12
26 19 19 2 -3 -1 -11 -7 -17z m-4212 -48 c0 -5 -2 -10 -4 -10 -3 0 -8 5 -11
10 -3 6 -1 10 4 10 6 0 11 -4 11 -10z m70 0 c0 -5 -4 -10 -10 -10 -5 0 -10 5
-10 10 0 6 5 10 10 10 6 0 10 -4 10 -10z m52 -12 c-6 -6 -15 -8 -19 -4 -4 4
-1 11 7 16 19 12 27 3 12 -12z m3968 2 c0 -5 -4 -10 -10 -10 -5 0 -10 5 -10
10 0 6 5 10 10 10 6 0 10 -4 10 -10z m-70 -55 c12 7 12 3 4 -19 -9 -23 -19
-20 -33 11 -11 23 -10 25 3 14 8 -7 20 -10 26 -6z m-4010 -5 c0 -5 -2 -10 -4
-10 -3 0 -8 5 -11 10 -3 6 -1 10 4 10 6 0 11 -4 11 -10z m60 7 c0 -2 -10 -12
-21 -23 -22 -19 -22 -19 -8 4 12 19 29 30 29 19z m4028 -16 c3 -8 -1 -12 -9
-9 -7 2 -15 10 -17 17 -3 8 1 12 9 9 7 -2 15 -10 17 -17z m57 9 c3 -5 -1 -10
-9 -10 -9 0 -16 5 -16 10 0 6 4 10 9 10 6 0 13 -4 16 -10z m65 0 c0 -5 -5 -10
-11 -10 -5 0 -7 5 -4 10 3 6 8 10 11 10 2 0 4 -4 4 -10z m-4090 -10 c0 -5 -9
-10 -21 -10 -11 0 -17 5 -14 10 3 6 13 10 21 10 8 0 14 -4 14 -10z m-444 -58
c8 -21 20 -31 43 -35 40 -8 40 -26 1 -34 -20 -4 -36 -16 -46 -35 l-15 -29 -35
47 c-28 36 -33 49 -22 55 7 5 16 9 19 9 3 0 12 11 19 25 17 32 23 31 36 -3z
m4882 2 c9 -17 18 -24 30 -20 9 3 23 2 31 -3 11 -7 8 -14 -14 -32 -41 -35 -53
-47 -59 -61 -5 -10 -7 -10 -12 1 -9 19 -39 47 -55 53 -10 4 -4 14 19 35 17 17
32 36 32 42 0 20 17 11 28 -15z m-540 -3 c3 -8 -1 -12 -9 -9 -7 2 -15 10 -17
17 -3 8 1 12 9 9 7 -2 15 -10 17 -17z m-4610 -14 c4 -19 -6 -21 -27 -8 -16 10
-5 34 12 28 7 -2 13 -11 15 -20z m592 14 c0 -12 -20 -25 -27 -18 -7 7 6 27 18
27 5 0 9 -4 9 -9z m108 -5 c-7 -8 -15 -12 -17 -11 -5 6 10 25 20 25 5 0 4 -6
-3 -14z m4032 5 c0 -5 -7 -11 -15 -15 -9 -3 -15 0 -15 9 0 8 7 15 15 15 8 0
15 -4 15 -9z m650 -6 c0 -8 -7 -15 -15 -15 -8 0 -15 7 -15 15 0 8 7 15 15 15
8 0 15 -7 15 -15z m-2139 -48 c4 -286 12 -432 22 -439 9 -6 9 -8 0 -8 -8 0
-13 -13 -13 -30 0 -23 4 -30 20 -30 11 0 20 -4 20 -10 0 -5 -9 -10 -19 -10
-16 0 -20 -10 -26 -60 l-7 -60 -41 -1 c-23 0 -36 -3 -29 -6 6 -2 12 -10 12
-16 0 -6 -11 0 -25 13 -23 22 -25 30 -25 117 0 89 -1 93 -22 94 l-23 2 23 4
c17 3 22 11 22 34 0 16 -6 29 -12 30 -10 0 -10 2 0 6 17 7 15 62 -3 69 -8 4
-15 10 -15 15 0 4 6 6 14 3 12 -5 15 20 15 156 1 90 3 165 5 169 2 3 27 4 55
3 l51 -4 1 -41z m-662 27 c1 -1 3 -122 3 -267 l0 -264 24 0 23 0 1 175 c0 97
4 180 9 185 4 4 31 5 60 1 l51 -7 0 -107 c0 -77 4 -110 13 -113 9 -4 9 -7 0
-14 -8 -6 -13 -50 -15 -133 l-3 -125 -55 0 -55 0 -3 58 c-3 53 -5 57 -27 57
-22 0 -24 -4 -27 -57 -3 -64 -11 -70 -73 -59 -31 6 -33 9 -40 61 -6 50 -9 55
-31 55 -22 0 -24 -4 -24 -53 0 -29 -6 -59 -12 -65 -7 -7 -13 -18 -13 -24 0 -6
-6 -13 -12 -15 -8 -3 -13 4 -13 16 0 16 -6 21 -29 21 -34 0 -41 14 -41 76 0
30 -4 44 -13 44 -8 0 -14 7 -14 15 0 8 6 15 14 15 7 0 13 11 13 26 0 14 -4 23
-10 19 -5 -3 -10 -1 -10 4 0 6 5 11 10 11 15 0 12 60 -2 61 -10 0 -10 2 0 6 8
3 12 32 12 96 0 51 4 98 9 105 5 9 25 12 57 10 l49 -3 3 -104 c3 -101 3 -103
25 -98 l22 6 -22 -16 c-28 -19 -31 -62 -5 -64 16 -1 16 -2 0 -6 -12 -3 -18
-14 -18 -34 0 -27 3 -30 23 -23 12 3 24 8 26 10 2 2 5 113 7 246 3 134 7 253
9 266 5 21 9 23 53 16 26 -3 49 -8 51 -10z m2991 -9 c0 -21 -19 -28 -36 -15
-12 11 -12 14 3 25 20 15 33 11 33 -10z m-5735 -5 c0 -22 -29 -18 -33 3 -3 14
1 18 15 15 10 -2 18 -10 18 -18z m895 -6 c0 -18 -26 -18 -33 0 -3 8 -3 16 0
19 9 10 33 -5 33 -19z m-156 -19 c-15 -22 -31 -36 -21 -17 2 4 7 15 10 25 4 9
11 17 17 17 6 0 3 -11 -6 -25z m76 15 c0 -5 -4 -10 -10 -10 -5 0 -10 5 -10 10
0 6 5 10 10 10 6 0 10 -4 10 -10z m4030 1 c0 -14 -18 -23 -30 -16 -6 4 -8 11
-5 16 8 12 35 12 35 0z m60 -5 c0 -3 -4 -8 -10 -11 -5 -3 -10 -1 -10 4 0 6 5
11 10 11 6 0 10 -2 10 -4z m-3097 -44 c15 -14 24 -42 12 -42 -2 0 -20 8 -40
17 -41 19 -52 59 -12 47 12 -3 30 -13 40 -22z m2081 15 c-6 -16 -69 -48 -78
-40 -13 13 -5 23 27 37 41 19 58 19 51 3z m-3070 -38 c-10 -16 -24 -9 -24 12
0 18 2 19 15 9 8 -7 12 -16 9 -21z m4346 21 c0 -5 -2 -10 -4 -10 -3 0 -8 5
-11 10 -3 6 -1 10 4 10 6 0 11 -4 11 -10z m-260 -4 c0 -3 -4 -8 -10 -11 -5 -3
-10 -1 -10 4 0 6 5 11 10 11 6 0 10 -2 10 -4z m-4280 -16 c0 -5 -4 -10 -9 -10
-6 0 -13 5 -16 10 -3 6 1 10 9 10 9 0 16 -4 16 -10z m4210 0 c0 -5 -4 -10 -9
-10 -6 0 -13 5 -16 10 -3 6 1 10 9 10 9 0 16 -4 16 -10z m-1595 -355 l0 -220
-32 -3 c-18 -2 -33 -7 -33 -13 0 -5 -5 -9 -11 -9 -5 0 -8 4 -5 9 3 5 0 11 -8
14 -9 4 -17 28 -21 61 -6 46 -11 56 -26 56 -11 0 -19 -1 -20 -2 0 -2 -2 -23
-5 -48 -8 -69 -9 -70 -64 -70 l-50 0 0 60 c0 40 -4 60 -12 60 -9 0 -9 3 0 12
7 7 12 21 12 33 0 12 -5 26 -12 33 -9 9 -9 12 0 12 7 0 12 14 12 34 0 41 11
50 58 48 51 -2 60 -14 60 -88 0 -72 2 -77 26 -68 23 9 22 64 -1 65 -17 1 -17
2 0 6 18 5 25 53 7 53 -5 0 -10 5 -10 11 0 5 5 7 10 4 6 -4 10 27 10 85 l0 91
58 -3 57 -3 0 -220z m337 180 c4 -22 7 -75 7 -117 1 -49 5 -78 12 -78 6 0 3
-7 -5 -16 -21 -20 -20 -34 2 -50 10 -8 12 -13 5 -14 -9 0 -13 -19 -13 -59 l0
-59 -50 -4 c-28 -1 -55 -1 -60 0 -11 4 -14 424 -3 436 4 4 28 6 53 4 44 -3 45
-4 52 -43z m-2977 -6 c10 -15 0 -21 -38 -25 -22 -3 -39 1 -47 11 -14 17 -7 19
20 5 13 -7 19 -6 24 5 6 17 32 20 41 4z m4345 7 c0 -3 -4 -8 -10 -11 -5 -3
-10 -1 -10 4 0 6 5 11 10 11 6 0 10 -2 10 -4z m220 -16 c0 -21 -15 -27 -25
-10 -7 12 2 30 16 30 5 0 9 -9 9 -20z m-4410 0 c0 -5 -4 -10 -10 -10 -5 0 -10
5 -10 10 0 6 5 10 10 10 6 0 10 -4 10 -10z m3000 -151 c0 -97 2 -109 18 -110
16 -1 16 -2 0 -6 -14 -4 -18 -15 -18 -57 0 -52 -1 -54 -31 -60 -17 -3 -28 -10
-24 -16 3 -5 1 -10 -4 -10 -6 0 -11 4 -11 9 0 5 -9 13 -20 16 -17 5 -20 15
-20 61 0 34 -4 53 -10 49 -5 -3 -10 -1 -10 4 0 6 5 11 10 11 15 0 13 137 -2
144 -10 5 -10 7 0 12 6 3 12 18 12 34 0 33 6 36 65 32 l45 -4 0 -109z m-2921
95 c5 -5 -10 -24 -19 -24 -5 0 -14 9 -21 21 -10 19 -9 20 13 14 12 -4 25 -9
27 -11z m2151 12 c0 -3 -4 -8 -10 -11 -5 -3 -10 -1 -10 4 0 6 5 11 10 11 6 0
10 -2 10 -4z m1900 -6 c-13 -9 -13 -11 0 -20 9 -6 10 -10 3 -10 -15 0 -26 17
-18 30 3 6 12 10 18 10 7 0 6 -4 -3 -10z m66 -17 c-10 -10 -19 5 -10 18 6 11
8 11 12 0 2 -7 1 -15 -2 -18z m-4436 7 c0 -5 -4 -10 -9 -10 -6 0 -13 5 -16 10
-3 6 1 10 9 10 9 0 16 -4 16 -10z m180 6 c0 -3 -4 -8 -10 -11 -5 -3 -10 -1
-10 4 0 6 5 11 10 11 6 0 10 -2 10 -4z m65 -6 c-3 -5 -11 -10 -16 -10 -6 0 -7
5 -4 10 3 6 11 10 16 10 6 0 7 -4 4 -10z m1269 -6 c3 -9 6 -24 6 -35 0 -10 5
-19 12 -19 9 0 9 -3 0 -12 -8 -8 -12 -51 -12 -129 0 -132 0 -133 -75 -122
l-45 6 0 53 c0 45 -3 54 -17 54 -17 1 -17 1 -1 10 13 8 16 27 17 101 1 50 4
95 7 100 3 5 27 9 54 9 34 0 50 -4 54 -16z m3141 6 c-3 -5 -10 -10 -16 -10 -5
0 -9 5 -9 10 0 6 7 10 16 10 8 0 12 -4 9 -10z m-2774 -67 c3 -112 -1 -245 -6
-254 -7 -10 -75 -12 -99 -3 -14 5 -16 27 -16 138 0 178 0 176 66 176 l54 0 1
-57z m-1841 6 c0 -14 -17 -10 -23 5 -4 10 -1 13 9 9 7 -3 14 -9 14 -14z m4395
1 c3 -5 1 -10 -4 -10 -6 0 -11 5 -11 10 0 6 2 10 4 10 3 0 8 -4 11 -10z
m-4428 -6 c-3 -3 -12 -4 -19 -1 -8 3 -5 6 6 6 11 1 17 -2 13 -5z m173 2 c0 -3
-4 -8 -10 -11 -5 -3 -10 -1 -10 4 0 6 5 11 10 11 6 0 10 -2 10 -4z m60 0 c0
-3 -4 -8 -10 -11 -5 -3 -10 -1 -10 4 0 6 5 11 10 11 6 0 10 -2 10 -4z m60 -40
c0 -2 -7 -7 -16 -10 -8 -3 -12 -2 -9 4 6 10 25 14 25 6z m4074 -20 c-6 -15
-24 -23 -24 -11 0 8 24 34 28 30 1 -1 0 -10 -4 -19z m-3044 -37 c3 -24 3 -69
0 -99 l-5 -55 -57 -3 -58 -3 -1 58 c-1 90 2 138 11 143 4 3 30 4 57 4 l48 -1
5 -44z m364 35 c3 -9 6 -55 6 -104 l0 -88 -30 -7 c-16 -4 -43 -4 -60 0 -29 6
-30 9 -30 61 0 52 -1 54 -27 55 l-28 1 28 11 c23 9 27 17 27 49 l0 38 54 0
c40 0 55 -4 60 -16z m1724 -90 l3 -102 -44 -3 c-74 -6 -77 -4 -77 57 0 30 -4
54 -10 54 -5 0 -10 5 -10 11 0 5 5 7 10 4 6 -4 10 9 10 33 0 21 3 42 7 46 4 4
30 6 58 4 l50 -3 3 -101z m1092 87 c0 -6 -4 -13 -10 -16 -5 -3 -10 1 -10 9 0
9 5 16 10 16 6 0 10 -4 10 -9z m136 -5 c14 -15 19 -36 8 -36 -4 0 -13 8 -20
18 -12 16 -15 14 -43 -18 -24 -29 -32 -33 -42 -22 -18 17 0 46 32 50 13 2 28
8 34 13 12 12 14 12 31 -5z m-4725 -19 c-13 -13 -26 -3 -16 12 3 6 11 8 17 5
6 -4 6 -10 -1 -17z m126 -3 c42 -19 58 -37 47 -55 -3 -5 -15 -3 -27 6 -12 8
-29 15 -39 15 -19 0 -50 39 -42 52 3 5 9 7 12 5 4 -2 26 -12 49 -23z m133 22
c0 -3 -4 -8 -10 -11 -5 -3 -10 -1 -10 4 0 6 5 11 10 11 6 0 10 -2 10 -4z m65
-6 c-3 -5 -10 -10 -16 -10 -5 0 -9 5 -9 10 0 6 7 10 16 10 8 0 12 -4 9 -10z
m4195 0 c0 -5 -4 -10 -10 -10 -5 0 -10 5 -10 10 0 6 5 10 10 10 6 0 10 -4 10
-10z m-4180 -56 c0 -3 -7 -1 -15 6 -8 7 -15 17 -15 22 0 5 7 3 15 -6 8 -8 15
-18 15 -22z m4265 15 c-10 -15 -25 -10 -19 6 4 8 10 12 15 9 5 -3 7 -10 4 -15z
m-65 2 c0 -12 -29 -23 -41 -15 -18 10 -9 24 16 24 14 0 25 -4 25 -9z m-1700
-11 c0 -5 -5 -10 -11 -10 -5 0 -7 5 -4 10 3 6 8 10 11 10 2 0 4 -4 4 -10z
m-1654 -11 c4 -8 9 -7 15 2 7 11 9 10 9 -3 0 -23 -62 -43 -90 -28 -21 11 -25
22 -13 33 11 11 71 8 79 -4z m639 1 c-3 -5 -12 -7 -20 -3 -21 7 -19 13 6 13
11 0 18 -4 14 -10z m1838 -4 c8 -19 -12 -36 -42 -36 -35 0 -55 15 -48 34 8 21
82 22 90 2z m924 -28 c-3 -8 -6 -5 -6 6 -1 11 2 17 5 13 3 -3 4 -12 1 -19z
m-80 -25 c-3 -10 -5 -4 -5 12 0 17 2 24 5 18 2 -7 2 -21 0 -30z m-4246 14 c-1
-12 -15 -9 -19 4 -3 6 1 10 8 8 6 -3 11 -8 11 -12z m8 -65 c6 -11 6 -24 -1
-36 -8 -14 -7 -17 1 -12 12 8 16 -6 5 -17 -10 -10 -64 46 -64 65 0 24 46 24
59 0z m2001 -36 c0 -3 -4 -8 -10 -11 -5 -3 -10 -1 -10 4 0 6 5 11 10 11 6 0
10 -2 10 -4z m137 -16 c-1 -11 -4 -20 -8 -20 -10 0 -19 27 -12 34 12 12 22 5
20 -14z m-2297 -10 c0 -5 -4 -10 -10 -10 -5 0 -10 5 -10 10 0 6 5 10 10 10 6
0 10 -4 10 -10z m0 -70 c0 -5 -4 -10 -10 -10 -5 0 -10 5 -10 10 0 6 5 10 10
10 6 0 10 -4 10 -10z m4550 0 c0 -5 -5 -10 -11 -10 -5 0 -7 5 -4 10 3 6 8 10
11 10 2 0 4 -4 4 -10z m295 -67 c28 -21 28 -22 8 -23 -12 0 -24 -4 -27 -9 -9
-14 -65 -19 -59 -5 4 11 -42 31 -77 33 -25 1 -95 8 -98 10 -2 0 -1 4 1 9 3 4
54 7 114 7 96 0 112 -2 138 -22z m55 -28 c0 -8 -2 -15 -4 -15 -2 0 -6 7 -10
15 -3 8 -1 15 4 15 6 0 10 -7 10 -15z m-5343 -21 c9 -23 -10 -36 -41 -28 -26
6 -26 7 -10 25 21 23 43 24 51 3z m493 6 c0 -5 -4 -10 -10 -10 -5 0 -10 5 -10
10 0 6 5 10 10 10 6 0 10 -4 10 -10z m30 0 c0 -5 -4 -10 -10 -10 -5 0 -10 5
-10 10 0 6 5 10 10 10 6 0 10 -4 10 -10z m4976 -1 c3 -6 -1 -18 -10 -27 -15
-15 -17 -15 -32 0 -9 9 -13 21 -10 27 9 14 43 14 52 0z m-5067 -21 c-1 -7 -5
-24 -9 -38 -7 -22 -8 -21 -9 13 -1 20 4 37 9 37 6 0 10 -6 9 -12z m4648 -15
c12 -18 12 -23 -3 -38 -16 -15 -18 -15 -36 3 -17 16 -18 23 -8 41 13 26 27 24
47 -6z m-4705 -28 c0 -5 -5 -11 -11 -13 -6 -2 -11 4 -11 13 0 9 5 15 11 13 6
-2 11 -8 11 -13z m5275 -31 c8 -21 -13 -42 -28 -27 -13 13 -5 43 11 43 6 0 13
-7 17 -16z m-5789 -11 c5 -17 -26 -29 -40 -15 -6 6 -7 15 -3 22 9 14 37 9 43
-7z m1862 -22 c0 -16 -43 -41 -70 -41 l-25 1 28 24 c28 25 67 34 67 16z m2050
-22 l35 -30 -34 5 c-37 7 -74 33 -65 47 10 16 29 9 64 -22z m1300 12 c0 -12
-20 -25 -27 -18 -7 7 6 27 18 27 5 0 9 -4 9 -9z m-80 -11 c0 -5 -4 -10 -9 -10
-6 0 -13 5 -16 10 -3 6 1 10 9 10 9 0 16 -4 16 -10z m-4560 -60 c0 -5 -9 -6
-20 -3 -11 3 -17 9 -15 14 7 10 35 1 35 -11z m10 -69 c0 -6 -4 -13 -10 -16 -5
-3 -10 1 -10 9 0 9 5 16 10 16 6 0 10 -4 10 -9z m216 -16 c-1 -29 -16 -35 -16
-7 0 16 8 32 16 32 1 0 1 -11 0 -25z m4204 21 c0 -3 -4 -8 -10 -11 -5 -3 -10
-1 -10 4 0 6 5 11 10 11 6 0 10 -2 10 -4z m202 -18 c-7 -7 -12 -8 -12 -2 0 14
12 26 19 19 2 -3 -1 -11 -7 -17z m-272 -53 c0 -8 -4 -15 -10 -15 -5 0 -7 7 -4
15 4 8 8 15 10 15 2 0 4 -7 4 -15z m-4760 -21 c0 -8 -9 -14 -20 -14 -22 0 -28
26 -7 33 16 6 27 -1 27 -19z m343 -20 c9 -9 -4 -34 -18 -34 -14 0 -27 25 -18
34 4 3 12 6 18 6 6 0 14 -3 18 -6z m4697 -20 c0 -8 -7 -14 -15 -14 -15 0 -21
21 -9 33 10 9 24 -2 24 -19z m-222 -9 c-3 -3 -9 2 -12 12 -6 14 -5 15 5 6 7
-7 10 -15 7 -18z m632 -10 c0 -8 -6 -15 -14 -15 -17 0 -28 14 -19 24 12 12 33
6 33 -9z m-3350 -51 c0 -33 -17 -64 -35 -64 -22 0 -20 66 3 79 26 16 32 13 32
-15z m1218 -21 c2 -24 -1 -43 -7 -43 -19 0 -41 32 -41 61 0 26 3 30 23 27 18
-2 23 -10 25 -45z m-3588 -71 c0 -13 -12 -22 -22 -16 -10 6 -1 24 13 24 5 0 9
-4 9 -8z m1940 -49 c204 -135 400 -215 655 -268 110 -23 477 -32 611 -16 182
23 431 90 552 150 42 20 122 65 177 99 l100 62 -60 -57 c-102 -97 -319 -198
-554 -258 -177 -44 -308 -58 -506 -52 -316 9 -578 76 -831 213 -82 45 -234
150 -248 173 -13 21 31 1 104 -46z m4124 36 c-3 -5 -10 -7 -15 -3 -5 3 -7 10
-3 15 3 5 10 7 15 3 5 -3 7 -10 3 -15z m-257 -43 c-9 -22 -47 -21 -47 2 0 10
5 23 12 30 16 16 43 -10 35 -32z m-2833 18 c3 -8 3 -33 0 -55 -5 -29 -11 -39
-23 -37 -12 2 -17 17 -19 56 -3 46 -1 52 16 52 11 0 23 -7 26 -16z m-2280 -18
c-8 -14 -30 -34 -47 -45 -18 -11 -40 -26 -49 -33 -26 -19 -48 4 -30 32 6 11
12 27 12 35 0 17 12 19 26 5 8 -8 18 -5 35 9 13 11 34 20 47 21 22 0 22 -1 6
-24z m-476 -33 c-16 -15 -18 -15 -24 0 -3 9 -3 25 0 34 6 15 8 15 24 0 15 -16
15 -18 0 -34z m5158 13 c11 -46 -27 -64 -60 -27 -16 18 -16 20 6 35 32 22 47
20 54 -8z m-4496 4 c0 -5 -2 -10 -4 -10 -3 0 -8 5 -11 10 -3 6 -1 10 4 10 6 0
11 -4 11 -10z m4156 -45 c9 -8 26 -15 39 -15 28 0 42 -17 26 -33 -8 -8 -17 -7
-34 2 -13 7 -30 11 -38 9 -9 -2 -13 4 -11 15 2 9 -2 17 -8 17 -5 0 -10 5 -10
10 0 15 19 12 36 -5z m-4866 -30 c0 -8 -7 -15 -15 -15 -8 0 -15 7 -15 15 0 8
7 15 15 15 8 0 15 -7 15 -15z m780 -11 c0 -16 -16 -19 -25 -4 -8 13 4 32 16
25 5 -4 9 -13 9 -21z m-72 4 c-6 -18 -25 -20 -31 -3 -5 10 0 15 14 15 12 0 19
-5 17 -12z m122 -4 c0 -8 -4 -12 -10 -9 -5 3 -10 10 -10 16 0 5 5 9 10 9 6 0
10 -7 10 -16z m3900 7 c2 -1 -1 -6 -7 -12 -9 -9 -16 -8 -28 5 -15 15 -15 16 7
12 13 -3 25 -5 28 -5z m70 -7 c0 -9 -5 -14 -12 -12 -18 6 -21 28 -4 28 9 0 16
-7 16 -16z m395 6 c3 -5 1 -10 -4 -10 -6 0 -11 5 -11 10 0 6 2 10 4 10 3 0 8
-4 11 -10z m435 0 c0 -5 -4 -10 -10 -10 -5 0 -10 5 -10 10 0 6 5 10 10 10 6 0
10 -4 10 -10z m-4860 -70 c0 -5 -5 -10 -11 -10 -5 0 -7 5 -4 10 3 6 8 10 11
10 2 0 4 -4 4 -10z m125 -9 c-3 -6 -11 -11 -17 -11 -6 0 -6 6 2 15 14 17 26
13 15 -4z m65 4 c0 -8 -7 -15 -15 -15 -16 0 -20 12 -8 23 11 12 23 8 23 -8z
m3834 -6 c-3 -5 -10 -7 -15 -3 -5 3 -7 10 -3 15 3 5 10 7 15 3 5 -3 7 -10 3
-15z m66 11 c0 -5 -5 -10 -11 -10 -5 0 -7 5 -4 10 3 6 8 10 11 10 2 0 4 -4 4
-10z m-4160 -10 c0 -5 -4 -10 -10 -10 -5 0 -10 5 -10 10 0 6 5 10 10 10 6 0
10 -4 10 -10z m3950 0 c0 -5 -4 -10 -10 -10 -5 0 -10 5 -10 10 0 6 5 10 10 10
6 0 10 -4 10 -10z m72 -2 c-9 -9 -15 -9 -24 0 -9 9 -7 12 12 12 19 0 21 -3 12
-12z m150 -55 c24 -22 23 -35 -4 -31 -15 2 -24 11 -26 26 -4 26 5 28 30 5z
m335 -5 c12 -13 21 -36 21 -52 0 -20 -3 -24 -9 -15 -8 12 -11 11 -19 -1 -6 -8
-8 -23 -6 -32 2 -10 2 -18 -1 -18 -11 0 -32 35 -33 52 0 10 -11 25 -25 34 -32
21 -32 34 -1 34 14 0 28 5 31 10 9 15 19 12 42 -12z m-4753 -10 c8 -13 6 -21
-7 -36 -9 -10 -17 -26 -17 -36 0 -26 -24 -13 -28 15 -2 13 -8 28 -13 33 -11
13 20 48 39 44 8 -2 20 -11 26 -20z m264 5 c5 -17 -26 -29 -40 -15 -6 6 -7 15
-3 22 9 14 37 9 43 -7z m4212 7 c0 -5 -5 -10 -11 -10 -5 0 -7 5 -4 10 3 6 8
10 11 10 2 0 4 -4 4 -10z m981 -37 c10 -3 19 -7 19 -8 0 -2 -14 -18 -31 -36
-29 -31 -30 -31 -36 -11 -3 14 -17 25 -37 30 l-31 8 26 7 c15 4 35 19 45 34
l19 28 3 -24 c2 -13 12 -26 23 -28z m-6107 -21 c-8 -2 -17 -14 -20 -28 -7 -29
-24 -31 -31 -4 -3 10 -14 22 -24 25 -22 7 -25 25 -4 25 8 0 19 9 25 21 11 20
12 20 40 -8 21 -20 25 -29 14 -31z m836 42 c0 -2 -7 -4 -15 -4 -8 0 -15 4 -15
10 0 5 7 7 15 4 8 -4 15 -8 15 -10z m716 -71 c-30 -59 -53 -139 -61 -213 -5
-42 -2 -70 13 -113 22 -66 10 -77 -18 -14 -14 30 -20 65 -20 124 0 90 19 155
74 253 25 44 32 51 34 33 2 -12 -8 -43 -22 -70z m3624 77 c0 -5 -5 -10 -11
-10 -5 0 -7 5 -4 10 3 6 8 10 11 10 2 0 4 -4 4 -10z m-728 -84 c26 -45 53
-107 59 -136 21 -96 -9 -226 -56 -244 -13 -5 -14 -2 -1 22 8 15 18 50 23 77
13 71 -15 230 -49 282 -43 65 -50 83 -36 83 7 0 34 -38 60 -84z m-3897 25 c3
-5 2 -12 -3 -15 -5 -3 -9 1 -9 9 0 17 3 19 12 6z m215 -12 c0 -5 -4 -9 -10 -9
-5 0 -10 7 -10 16 0 8 5 12 10 9 6 -3 10 -10 10 -16z m76 -1 c-1 -13 -6 -22
-9 -20 -4 1 -11 2 -17 2 -17 0 -11 28 8 33 9 3 18 5 19 6 2 0 1 -9 -1 -21z
m4484 6 c0 -8 -5 -12 -10 -9 -6 4 -8 11 -5 16 9 14 15 11 15 -7z m-132 -6 c-3
-7 -15 -15 -28 -16 -21 -3 -22 -2 -11 12 16 19 44 21 39 4z m56 -3 c-4 -8 -10
-12 -15 -9 -11 6 -2 24 11 24 5 0 7 -7 4 -15z m-4554 -55 c0 -5 -4 -10 -10
-10 -5 0 -10 5 -10 10 0 6 5 10 10 10 6 0 10 -4 10 -10z m-140 -49 c0 -5 -7
-12 -16 -15 -14 -5 -15 -4 -4 9 14 17 20 19 20 6z m72 -23 c-15 -15 -26 -4
-18 18 5 13 9 15 18 6 9 -9 9 -15 0 -24z m4769 19 c-1 -12 -15 -9 -19 4 -3 6
1 10 8 8 6 -3 11 -8 11 -12z m84 3 c3 -6 -1 -13 -10 -16 -19 -8 -30 0 -20 15
8 14 22 14 30 1z m-5067 -11 c-2 -6 -8 -10 -13 -10 -5 0 -11 4 -13 10 -2 6 4
11 13 11 9 0 15 -5 13 -11z m72 2 c0 -6 -4 -13 -10 -16 -5 -3 -10 1 -10 9 0 9
5 16 10 16 6 0 10 -4 10 -9z m224 0 c3 -5 -1 -12 -10 -15 -22 -9 -24 -8 -24 9
0 16 25 21 34 6z m4966 -7 c0 -8 -5 -12 -10 -9 -6 4 -8 11 -5 16 9 14 15 11
15 -7z m-4142 -59 c-1 -36 -18 -62 -18 -28 0 21 11 63 16 63 2 0 3 -16 2 -35z
m4012 -6 c0 -5 -9 -9 -20 -9 -19 0 -27 20 -13 33 7 8 33 -11 33 -24z m-5221 8
c6 -8 8 -17 5 -20 -7 -7 -44 14 -44 25 0 13 27 9 39 -5z m161 -1 c0 -17 -14
-29 -23 -20 -8 8 3 34 14 34 5 0 9 -6 9 -14z m79 0 c9 -11 8 -15 -5 -20 -20
-8 -39 7 -30 23 10 15 21 14 35 -3z m5043 -18 c-15 -15 -26 -4 -18 18 5 13 9
15 18 6 9 -9 9 -15 0 -24z m-5192 8 c0 -11 -19 -15 -25 -6 -3 5 1 10 9 10 9 0
16 -2 16 -4z m1141 -23 c-12 -20 -14 -14 -5 12 4 9 9 14 11 11 3 -2 0 -13 -6
-23z m4119 17 c0 -5 -2 -10 -4 -10 -3 0 -8 5 -11 10 -3 6 -1 10 4 10 6 0 11
-4 11 -10z m-3374 -69 c66 -17 179 -42 250 -56 l129 -25 -110 5 c-60 2 -155
11 -210 20 -55 8 -155 15 -222 15 l-122 0 40 54 41 54 41 -18 c23 -10 96 -32
163 -49z m1612 16 c23 -23 42 -45 42 -48 0 -3 -75 -9 -167 -12 -93 -4 -213
-13 -268 -21 -114 -17 -303 -31 -295 -23 3 3 75 18 160 32 157 26 419 87 449
105 26 15 35 12 79 -33z m1770 -38 c-16 -10 -33 5 -23 21 5 8 11 8 21 -1 12
-10 12 -14 2 -20z m-5486 -11 c-15 -15 -26 -4 -18 18 5 13 9 15 18 6 9 -9 9
-15 0 -24z m81 20 c8 -23 -4 -35 -29 -30 -27 5 -26 4 -18 26 7 19 40 21 47 4z
m5463 -25 c-11 -11 -19 6 -11 24 8 17 8 17 12 0 3 -10 2 -21 -1 -24z m-5621
17 c3 -5 1 -10 -4 -10 -6 0 -11 5 -11 10 0 6 2 10 4 10 3 0 8 -4 11 -10z
m5705 -5 c0 -8 -4 -15 -10 -15 -5 0 -10 7 -10 15 0 8 5 15 10 15 6 0 10 -7 10
-15z m70 1 c0 -11 -19 -15 -25 -6 -3 5 1 10 9 10 9 0 16 -2 16 -4z m-5836 -71
c-4 -8 -10 -12 -15 -9 -14 8 -10 24 6 24 9 0 12 -6 9 -15z m5906 0 c0 -8 -4
-15 -9 -15 -13 0 -22 16 -14 24 11 11 23 6 23 -9z m116 -91 c-4 -12 -10 -14
-17 -7 -5 5 -7 17 -3 27 4 12 10 14 17 7 5 -5 7 -17 3 -27z m68 7 c3 -5 -1
-11 -9 -15 -9 -3 -15 0 -15 9 0 16 16 20 24 6z m-6264 -15 c0 -3 -4 -8 -10
-11 -5 -3 -10 -1 -10 4 0 6 5 11 10 11 6 0 10 -2 10 -4z m380 -20 c0 -3 -4 -8
-10 -11 -5 -3 -10 -1 -10 4 0 6 5 11 10 11 6 0 10 -2 10 -4z"/>
<path d="M2215 4504 c-38 -7 -85 -16 -103 -19 -41 -8 -33 -24 11 -20 67 6 242
39 252 47 14 12 -80 8 -160 -8z"/>
<path d="M4300 3942 c0 -5 7 -9 15 -9 8 0 15 4 15 9 0 4 -7 8 -15 8 -8 0 -15
-4 -15 -8z"/>
<path d="M5185 3940 c3 -5 8 -10 11 -10 2 0 4 5 4 10 0 6 -5 10 -11 10 -5 0
-7 -4 -4 -10z"/>
<path d="M3727 3873 c-10 -9 -9 -23 1 -23 5 0 9 7 9 15 0 17 -1 18 -10 8z"/>
<path d="M5596 3462 c-3 -5 1 -15 9 -22 16 -14 20 -3 6 19 -5 8 -11 9 -15 3z"/>
<path d="M5670 2645 c-7 -8 -10 -18 -7 -21 9 -10 48 7 44 19 -6 18 -23 19 -37
2z"/>
<path d="M5605 2580 c3 -5 11 -10 16 -10 6 0 7 5 4 10 -3 6 -11 10 -16 10 -6
0 -7 -4 -4 -10z"/>
<path d="M1887 2547 c-3 -8 1 -14 8 -14 7 0 11 6 8 14 -3 7 -6 13 -8 13 -2 0
-5 -6 -8 -13z"/>
<path d="M1760 1926 c0 -2 7 -7 16 -10 8 -3 12 -2 9 4 -6 10 -25 14 -25 6z"/>
<path d="M1655 1591 c-3 -5 -2 -12 3 -15 5 -3 9 1 9 9 0 17 -3 19 -12 6z"/>
<path d="M1588 1353 c7 -3 16 -2 19 1 4 3 -2 6 -13 5 -11 0 -14 -3 -6 -6z"/>
<path d="M1767 1323 c-4 -3 -7 -18 -6 -32 1 -26 1 -25 10 3 9 31 7 41 -4 29z"/>
<path d="M1762 1226 c0 -20 4 -36 10 -36 5 0 6 5 3 10 -8 13 14 42 26 34 5 -3
6 2 3 10 -7 19 -24 21 -24 4 0 -9 -3 -9 -9 1 -6 10 -9 2 -9 -23z"/>
<path d="M1947 833 c-11 -11 -8 -20 7 -20 8 0 12 6 9 14 -6 15 -7 15 -16 6z"/>
<path d="M5545 780 c-3 -5 -1 -10 4 -10 6 0 11 5 11 10 0 6 -2 10 -4 10 -3 0
-8 -4 -11 -10z"/>
<path d="M5560 691 c0 -19 22 -36 48 -37 18 -1 20 1 11 12 -6 8 -16 11 -22 7
-5 -3 -16 2 -24 12 -7 11 -13 13 -13 6z"/>
<path d="M1960 670 c0 -6 7 -10 15 -10 8 0 15 2 15 4 0 2 -7 6 -15 10 -8 3
-15 1 -15 -4z"/>
<path d="M1693 594 c-8 -22 4 -29 21 -11 14 13 14 16 0 21 -8 3 -17 -1 -21
-10z"/>
<path d="M1631 536 c-8 -9 -11 -19 -7 -23 9 -9 29 13 24 27 -2 8 -8 7 -17 -4z"/>
<path d="M1426 412 c5 -4 12 -11 15 -15 3 -5 9 -2 12 5 3 9 -3 14 -15 15 -11
1 -16 -1 -12 -5z"/>
</g>
</svg>
