<?xml version="1.0" standalone="no"?>
<!DOCTYPE svg PUBLIC "-//W3C//DTD SVG 20010904//EN"
 "http://www.w3.org/TR/2001/REC-SVG-20010904/DTD/svg10.dtd">
<svg version="1.0" xmlns="http://www.w3.org/2000/svg"
 width="1029.000000pt" height="980.000000pt" viewBox="0 0 1029.000000 980.000000"
 preserveAspectRatio="xMidYMid meet">

<g transform="translate(0.000000,980.000000) scale(0.100000,-0.100000)"
fill="#000000" stroke="none">
<path d="M7271 7760 c-134 -29 -242 -84 -337 -173 -51 -47 -85 -93 -151 -206
-325 -556 -520 -830 -757 -1066 -233 -232 -431 -347 -698 -407 -145 -32 -434
-32 -618 0 -149 27 -312 67 -475 119 -184 57 -178 59 -307 -77 -60 -62 -107
-116 -106 -119 3 -7 216 -211 743 -711 285 -271 412 -392 630 -601 60 -58 205
-195 320 -304 253 -240 590 -561 700 -667 l81 -77 111 112 c61 61 114 121 117
132 4 12 -13 73 -40 150 -135 382 -182 592 -191 850 -6 180 8 294 53 437 127
404 471 762 1184 1235 296 196 328 220 381 286 100 125 149 261 149 417 0 105
-12 171 -44 251 -37 92 -85 165 -153 232 -123 123 -271 186 -448 192 -55 2
-120 0 -144 -5z m211 -406 c61 -20 117 -70 153 -135 25 -46 29 -65 29 -129 0
-86 -21 -136 -81 -196 -82 -83 -218 -105 -319 -52 -225 118 -196 445 46 519
43 13 124 10 172 -7z"/>
<path d="M3575 5568 c-505 -564 -909 -902 -1192 -997 -34 -12 -69 -21 -77 -21
-8 0 -28 -12 -45 -26 -25 -21 -31 -33 -31 -65 0 -48 -8 -40 319 -348 158 -150
253 -232 271 -236 39 -9 79 14 123 71 20 26 37 42 37 35 0 -7 -11 -52 -25
-101 -14 -49 -25 -97 -25 -106 0 -18 318 -345 462 -476 93 -84 109 -87 223
-34 43 20 79 36 82 36 2 0 -13 -31 -32 -70 -49 -96 -47 -131 8 -184 73 -71
429 -409 504 -479 84 -78 93 -79 203 -42 40 14 76 25 78 25 3 0 -17 -23 -43
-51 -75 -81 -71 -90 127 -282 90 -86 176 -164 192 -173 81 -45 318 43 516 192
248 187 466 436 824 944 l116 165 -72 70 c-142 135 -314 300 -693 660 -110
105 -301 287 -425 405 -199 190 -347 330 -725 690 -55 52 -152 144 -215 205
-140 134 -309 294 -337 318 -20 17 -22 15 -148 -125z"/>
</g>
</svg>
